<mxfile host="app.diagrams.net" modified="2021-09-17T12:39:02.389Z" agent="5.0 (Windows NT 10.0; Win64; x64) AppleWebKit/537.36 (KHTML, like Gecko) Chrome/93.0.4577.82 Safari/537.36" etag="RyFhKgF9lqIZkiVKA1Xr" version="15.2.9" type="github">
  <diagram id="rF8fm5eHosrfL8DGZ9Ra" name="Page-1">
    <mxGraphModel dx="1038" dy="521" grid="1" gridSize="10" guides="1" tooltips="1" connect="1" arrows="1" fold="1" page="1" pageScale="1" pageWidth="827" pageHeight="1169" math="0" shadow="0">
      <root>
        <mxCell id="0" />
        <mxCell id="1" parent="0" />
        <mxCell id="uITEqIidcyAcWiBbeOKc-6" value="" style="group" vertex="1" connectable="0" parent="1">
          <mxGeometry x="50" y="30" width="570" height="100" as="geometry" />
        </mxCell>
        <mxCell id="uITEqIidcyAcWiBbeOKc-4" style="edgeStyle=orthogonalEdgeStyle;rounded=0;orthogonalLoop=1;jettySize=auto;html=1;exitX=1;exitY=0.5;exitDx=0;exitDy=0;entryX=0;entryY=0.5;entryDx=0;entryDy=0;" edge="1" parent="uITEqIidcyAcWiBbeOKc-6" source="uITEqIidcyAcWiBbeOKc-1" target="uITEqIidcyAcWiBbeOKc-5">
          <mxGeometry relative="1" as="geometry">
            <mxPoint x="440" y="40" as="targetPoint" />
          </mxGeometry>
        </mxCell>
        <mxCell id="uITEqIidcyAcWiBbeOKc-1" value="Audit CheckList&lt;br&gt;Module" style="rounded=0;whiteSpace=wrap;html=1;" vertex="1" parent="uITEqIidcyAcWiBbeOKc-6">
          <mxGeometry x="220" y="10" width="120" height="60" as="geometry" />
        </mxCell>
        <mxCell id="uITEqIidcyAcWiBbeOKc-3" style="edgeStyle=orthogonalEdgeStyle;rounded=0;orthogonalLoop=1;jettySize=auto;html=1;" edge="1" parent="uITEqIidcyAcWiBbeOKc-6" source="uITEqIidcyAcWiBbeOKc-2" target="uITEqIidcyAcWiBbeOKc-1">
          <mxGeometry relative="1" as="geometry" />
        </mxCell>
        <mxCell id="uITEqIidcyAcWiBbeOKc-2" value="AuditType" style="triangle;whiteSpace=wrap;html=1;" vertex="1" parent="uITEqIidcyAcWiBbeOKc-6">
          <mxGeometry width="60" height="80" as="geometry" />
        </mxCell>
        <mxCell id="uITEqIidcyAcWiBbeOKc-5" value="Yes/No Type Questions" style="ellipse;whiteSpace=wrap;html=1;" vertex="1" parent="uITEqIidcyAcWiBbeOKc-6">
          <mxGeometry x="450" y="10" width="120" height="80" as="geometry" />
        </mxCell>
        <mxCell id="uITEqIidcyAcWiBbeOKc-28" value="trigger f-portal" style="ellipse;shape=cloud;whiteSpace=wrap;html=1;" vertex="1" parent="uITEqIidcyAcWiBbeOKc-6">
          <mxGeometry x="240" y="60" width="70" height="40" as="geometry" />
        </mxCell>
        <mxCell id="uITEqIidcyAcWiBbeOKc-8" style="edgeStyle=orthogonalEdgeStyle;rounded=0;orthogonalLoop=1;jettySize=auto;html=1;" edge="1" parent="1" source="uITEqIidcyAcWiBbeOKc-7" target="uITEqIidcyAcWiBbeOKc-9">
          <mxGeometry relative="1" as="geometry">
            <mxPoint x="530" y="220" as="targetPoint" />
          </mxGeometry>
        </mxCell>
        <mxCell id="uITEqIidcyAcWiBbeOKc-7" value="Audit Benchmark" style="rounded=0;whiteSpace=wrap;html=1;" vertex="1" parent="1">
          <mxGeometry x="220" y="170" width="120" height="60" as="geometry" />
        </mxCell>
        <mxCell id="uITEqIidcyAcWiBbeOKc-16" style="edgeStyle=orthogonalEdgeStyle;rounded=0;orthogonalLoop=1;jettySize=auto;html=1;entryX=0.5;entryY=0;entryDx=0;entryDy=0;" edge="1" parent="1" source="uITEqIidcyAcWiBbeOKc-9" target="uITEqIidcyAcWiBbeOKc-11">
          <mxGeometry relative="1" as="geometry">
            <Array as="points">
              <mxPoint x="530" y="280" />
              <mxPoint x="110" y="280" />
              <mxPoint x="110" y="320" />
            </Array>
          </mxGeometry>
        </mxCell>
        <mxCell id="uITEqIidcyAcWiBbeOKc-9" value="&amp;nbsp; &amp;nbsp; &amp;nbsp; &amp;nbsp; &amp;nbsp;Will Return Benchmark/Threshold &lt;br&gt;Nos- based on Audit:&lt;br&gt;{&lt;br&gt;&quot;sox&quot;:3,&quot;Internal&quot;:2&lt;br&gt;}" style="ellipse;whiteSpace=wrap;html=1;" vertex="1" parent="1">
          <mxGeometry x="470" y="140" width="280" height="120" as="geometry" />
        </mxCell>
        <mxCell id="uITEqIidcyAcWiBbeOKc-12" style="edgeStyle=orthogonalEdgeStyle;rounded=0;orthogonalLoop=1;jettySize=auto;html=1;" edge="1" parent="1" source="uITEqIidcyAcWiBbeOKc-11" target="uITEqIidcyAcWiBbeOKc-13">
          <mxGeometry relative="1" as="geometry">
            <mxPoint x="280" y="350" as="targetPoint" />
          </mxGeometry>
        </mxCell>
        <mxCell id="uITEqIidcyAcWiBbeOKc-11" value="&lt;b&gt;Audit Request:&lt;br&gt;1. PN&lt;br&gt;2.PMN&lt;br&gt;3.AON&lt;br&gt;4. Audit Detail:&lt;br&gt;a. Audit Type.&lt;br&gt;b.&amp;nbsp; &amp;nbsp;AuditDate&lt;br&gt;c.&amp;nbsp; &amp;nbsp;AuditQuestions&amp;nbsp;&amp;nbsp;&lt;br&gt;&lt;/b&gt;" style="rounded=0;whiteSpace=wrap;html=1;" vertex="1" parent="1">
          <mxGeometry x="40" y="320" width="160" height="130" as="geometry" />
        </mxCell>
        <mxCell id="uITEqIidcyAcWiBbeOKc-17" style="edgeStyle=orthogonalEdgeStyle;rounded=0;orthogonalLoop=1;jettySize=auto;html=1;" edge="1" parent="1" source="uITEqIidcyAcWiBbeOKc-13" target="uITEqIidcyAcWiBbeOKc-18">
          <mxGeometry relative="1" as="geometry">
            <mxPoint x="460" y="350" as="targetPoint" />
          </mxGeometry>
        </mxCell>
        <mxCell id="uITEqIidcyAcWiBbeOKc-13" value="Audit Severity Module&lt;br&gt;" style="rounded=0;whiteSpace=wrap;html=1;" vertex="1" parent="1">
          <mxGeometry x="311" y="355" width="150" height="95" as="geometry" />
        </mxCell>
        <mxCell id="uITEqIidcyAcWiBbeOKc-18" value="Audit Response-&lt;br&gt;1. AuditId&lt;br&gt;2. ProjectExeSt-Green or Red.&lt;br&gt;3. Remedy-based accordingly&lt;br&gt;" style="ellipse;whiteSpace=wrap;html=1;" vertex="1" parent="1">
          <mxGeometry x="570" y="320" width="140" height="140" as="geometry" />
        </mxCell>
        <mxCell id="uITEqIidcyAcWiBbeOKc-25" value="Audit Management Portal&lt;br&gt;(web app)" style="rounded=0;whiteSpace=wrap;html=1;" vertex="1" parent="1">
          <mxGeometry x="220" y="670" width="120" height="60" as="geometry" />
        </mxCell>
        <mxCell id="uITEqIidcyAcWiBbeOKc-27" value="" style="group" vertex="1" connectable="0" parent="1">
          <mxGeometry x="40" y="530" width="500" height="110" as="geometry" />
        </mxCell>
        <mxCell id="uITEqIidcyAcWiBbeOKc-21" value="Creates JWT,&lt;br&gt;Token expires every hour" style="ellipse;whiteSpace=wrap;html=1;" vertex="1" parent="uITEqIidcyAcWiBbeOKc-27">
          <mxGeometry x="380" y="10" width="120" height="80" as="geometry" />
        </mxCell>
        <mxCell id="uITEqIidcyAcWiBbeOKc-29" style="edgeStyle=orthogonalEdgeStyle;rounded=0;orthogonalLoop=1;jettySize=auto;html=1;entryX=0;entryY=0.5;entryDx=0;entryDy=0;" edge="1" parent="uITEqIidcyAcWiBbeOKc-27" source="uITEqIidcyAcWiBbeOKc-22" target="uITEqIidcyAcWiBbeOKc-21">
          <mxGeometry relative="1" as="geometry" />
        </mxCell>
        <mxCell id="uITEqIidcyAcWiBbeOKc-22" value="Authorization Service" style="rounded=0;whiteSpace=wrap;html=1;" vertex="1" parent="uITEqIidcyAcWiBbeOKc-27">
          <mxGeometry x="180" y="20" width="120" height="60" as="geometry" />
        </mxCell>
        <mxCell id="uITEqIidcyAcWiBbeOKc-30" value="trigger f-ASM" style="ellipse;shape=cloud;whiteSpace=wrap;html=1;" vertex="1" parent="1">
          <mxGeometry x="220" y="210" width="100" height="50" as="geometry" />
        </mxCell>
        <mxCell id="uITEqIidcyAcWiBbeOKc-31" value="trigger f- portal" style="ellipse;shape=cloud;whiteSpace=wrap;html=1;" vertex="1" parent="1">
          <mxGeometry x="330" y="430" width="110" height="60" as="geometry" />
        </mxCell>
      </root>
    </mxGraphModel>
  </diagram>
</mxfile>
